<?xml version="1.0" standalone="no"?>
<!DOCTYPE svg PUBLIC "-//W3C//DTD SVG 20010904//EN"
 "http://www.w3.org/TR/2001/REC-SVG-20010904/DTD/svg10.dtd">
<svg version="1.0" xmlns="http://www.w3.org/2000/svg"
 width="1024.000000pt" height="1024.000000pt" viewBox="0 0 1024.000000 1024.000000"
 preserveAspectRatio="xMidYMid meet">

<g transform="translate(0.000000,1024.000000) scale(0.100000,-0.100000)"
fill="#000000" stroke="none">
<path d="M4985 9482 c-28 -10 -172 -90 -320 -179 -450 -268 -1037 -623 -1092
-659 -122 -82 -190 -194 -204 -338 -12 -123 -11 -1536 1 -1659 16 -162 67
-249 194 -332 274 -178 1340 -819 1410 -847 38 -16 73 -21 141 -21 98 0 165
20 254 73 25 16 217 131 426 256 550 329 838 508 919 569 77 58 126 127 147
205 15 56 25 1520 11 1710 -7 109 -12 135 -39 191 -43 93 -82 132 -223 224
-99 65 -943 577 -1221 741 -133 79 -293 105 -404 66z m218 -523 c54 -9 270
-79 308 -100 51 -27 64 -73 29 -104 -24 -22 -64 -16 -155 26 -165 75 -397 89
-578 35 -106 -32 -239 -97 -327 -161 -136 -100 -287 -278 -363 -430 -37 -74
-85 -216 -97 -289 -12 -67 -41 -126 -62 -126 -7 0 -26 11 -43 24 l-29 24 13
78 c48 283 198 542 442 761 160 143 396 253 583 273 82 8 196 4 279 -11z m36
-269 c285 -79 523 -331 631 -666 48 -149 65 -416 30 -459 -18 -22 -46 -18 -68
9 -15 20 -20 48 -25 139 -19 326 -167 609 -398 763 -324 215 -737 114 -995
-243 -74 -102 -154 -298 -154 -377 0 -9 -7 -49 -16 -87 -13 -58 -25 -81 -66
-130 -54 -65 -174 -159 -226 -177 -28 -10 -35 -8 -52 10 -38 41 -32 52 92 156
48 41 97 89 108 107 12 19 32 87 46 152 28 139 36 165 79 259 128 282 404 504
692 559 97 18 223 12 322 -15z m571 -111 c51 -31 89 -69 111 -111 24 -47 24
-60 0 -89 l-19 -24 -37 19 c-47 26 -155 141 -155 166 0 22 33 60 53 60 6 0 28
-10 47 -21z m-656 -139 c247 -63 437 -271 508 -558 31 -122 31 -353 0 -498
-27 -124 -68 -253 -89 -276 -19 -22 -52 -23 -78 -4 -19 14 -18 18 23 188 91
375 62 615 -100 834 -188 252 -520 269 -745 36 -101 -103 -158 -239 -191 -455
-14 -91 -48 -159 -124 -244 -98 -111 -236 -212 -338 -248 -60 -21 -87 -19
-105 9 -24 37 -7 58 93 117 130 77 170 107 240 177 73 74 106 134 121 218 6
32 17 93 25 135 27 145 101 282 210 389 100 98 205 155 341 185 84 19 121 18
209 -5z m1226 -220 c26 -26 26 -76 0 -90 -23 -13 -186 -29 -287 -30 -60 0 -77
4 -93 20 -20 20 -27 74 -12 96 13 20 35 22 205 23 154 1 169 -1 187 -19z
m-1278 -31 c117 -25 215 -101 275 -215 45 -85 63 -155 70 -269 21 -357 -156
-726 -502 -1046 -142 -131 -218 -186 -425 -303 -156 -88 -195 -100 -222 -66
-39 49 -19 71 137 155 252 135 463 300 593 462 129 163 226 342 274 508 19 67
23 104 23 230 0 136 -2 156 -25 214 -30 78 -102 161 -166 192 -86 41 -213 10
-294 -71 -60 -60 -88 -128 -105 -257 -19 -148 -48 -231 -117 -334 -101 -152
-252 -273 -488 -392 -166 -84 -220 -87 -220 -11 0 33 2 34 124 94 234 114 392
235 481 370 61 93 74 128 101 285 42 247 126 364 311 441 65 27 98 29 175 13z
m1173 -235 c18 -24 19 -45 1 -70 -12 -16 -29 -20 -114 -22 -84 -3 -101 -1
-116 14 -20 20 -16 81 6 96 7 5 57 7 111 5 81 -3 100 -7 112 -23z m-1175 -32
c87 -46 132 -180 111 -334 -44 -330 -251 -638 -591 -881 -92 -66 -345 -202
-415 -223 -39 -11 -45 -11 -64 7 -12 11 -21 32 -21 48 0 25 11 33 147 102 319
161 516 326 673 562 104 157 154 304 154 459 1 83 -2 100 -20 125 -12 15 -31
29 -43 31 -30 5 -46 -39 -61 -168 -15 -131 -47 -235 -101 -325 -145 -241 -329
-402 -634 -555 -112 -56 -136 -65 -184 -65 -52 0 -56 2 -65 28 -7 18 -7 33 0
44 5 8 80 48 166 88 86 40 196 99 245 131 175 117 341 303 404 453 26 64 59
197 59 242 0 12 5 51 11 85 8 48 19 72 46 104 20 23 46 46 57 50 35 15 90 11
126 -8z m1337 -212 c34 0 54 -28 51 -68 -3 -33 -7 -37 -38 -44 -19 -4 -110
-10 -201 -14 -161 -7 -167 -6 -188 15 -25 25 -28 73 -5 91 15 14 197 27 304
23 30 -1 65 -2 77 -3z m-57 -290 c21 -21 26 -55 11 -79 -13 -20 -86 -29 -225
-27 l-121 1 -14 29 c-12 26 -12 33 0 55 19 33 45 38 202 40 115 1 129 -1 147
-19z m-489 -34 c9 -19 7 -42 -6 -101 -24 -107 -25 -106 161 -112 82 -2 159 -6
172 -9 57 -12 49 -106 -10 -118 -17 -3 -118 -6 -225 -6 -193 0 -194 0 -218 25
-21 20 -25 34 -25 84 0 63 37 198 65 239 23 31 72 30 86 -2z m-439 -403 c34
-31 22 -73 -55 -188 -160 -238 -414 -461 -715 -630 -89 -50 -107 -57 -130 -49
-15 5 -31 21 -36 36 -13 38 2 53 137 132 257 152 504 372 647 576 100 144 115
156 152 123z m269 -59 c34 -12 112 -17 341 -22 263 -6 299 -9 315 -24 13 -14
15 -23 7 -45 -18 -53 -30 -55 -379 -49 -188 3 -335 9 -357 16 -62 18 -74 69
-28 118 25 26 43 27 101 6z m-153 -248 c13 -23 30 -35 52 -40 18 -3 137 -6
264 -6 193 0 235 -3 254 -16 12 -8 22 -21 22 -29 0 -24 -22 -64 -39 -70 -32
-13 -436 -17 -533 -6 -114 13 -143 24 -158 61 -14 34 8 89 48 120 37 30 67 26
90 -14z m-208 -263 c8 -18 22 -35 30 -39 8 -3 112 -8 230 -11 202 -4 216 -6
233 -26 26 -30 18 -59 -25 -80 -67 -33 -482 -20 -591 19 -47 16 -57 28 -57 65
0 27 24 54 80 88 48 29 81 24 100 -16z m-131 -263 c131 -7 187 -13 193 -22 14
-23 8 -58 -13 -79 -21 -21 -27 -22 -243 -17 -121 3 -229 9 -238 13 -38 15 -34
89 5 105 29 11 73 11 296 0z"/>
<path d="M5735 4795 c-38 -9 -113 -36 -165 -62 -174 -85 -302 -244 -357 -443
-25 -91 -25 -338 1 -430 92 -336 431 -552 778 -496 161 26 276 86 391 204 l58
59 -101 96 -101 96 -66 -56 c-94 -79 -158 -107 -260 -111 -139 -7 -238 40
-318 149 -107 145 -120 332 -34 507 33 68 51 91 97 127 77 61 136 80 242 79
108 -1 177 -26 267 -99 l67 -54 25 19 c15 10 60 53 101 95 l75 77 -65 60 c-81
75 -178 133 -273 163 -99 32 -265 41 -362 20z"/>
<path d="M8335 4804 c-147 -35 -202 -59 -303 -131 -122 -87 -232 -258 -268
-420 -25 -112 -15 -322 19 -418 103 -295 358 -478 667 -478 121 0 200 17 305
67 254 121 397 360 396 664 -1 337 -208 616 -516 697 -60 16 -262 29 -300 19z
m258 -313 c100 -43 198 -169 226 -291 16 -68 13 -199 -5 -261 -24 -83 -73
-167 -118 -204 -161 -130 -363 -121 -503 21 -63 65 -101 143 -119 248 -40 228
72 437 269 502 58 19 188 11 250 -15z"/>
<path d="M1090 4650 l0 -140 200 0 200 0 0 -570 0 -570 160 0 160 0 0 570 0
570 208 0 207 0 -3 140 -3 140 -565 0 -564 0 0 -140z"/>
<path d="M2420 4082 l0 -712 155 0 155 0 0 205 0 205 138 0 137 0 74 -123 c41
-67 98 -159 127 -204 l54 -83 165 0 c117 0 165 3 165 11 0 7 -64 108 -141 226
-78 118 -142 220 -143 227 0 7 26 33 59 58 75 56 139 138 167 214 26 74 35
215 18 293 -36 163 -173 310 -339 361 -60 19 -100 22 -428 27 l-363 6 0 -711z
m685 409 c49 -20 103 -80 121 -134 28 -83 3 -189 -58 -243 -53 -49 -82 -56
-264 -61 l-174 -6 0 233 0 232 173 -4 c101 -3 184 -10 202 -17z"/>
<path d="M4188 4653 c-30 -76 -152 -379 -271 -673 -119 -294 -223 -552 -232
-573 l-15 -37 167 2 167 3 57 150 57 150 289 3 290 3 38 -103 c21 -57 48 -127
61 -155 l23 -53 167 0 c129 0 165 3 161 13 -47 118 -201 490 -237 577 -27 63
-87 207 -133 320 -46 113 -112 274 -147 358 l-62 152 -162 0 -162 0 -56 -137z
m317 -468 c47 -125 85 -234 85 -241 0 -11 -35 -14 -185 -14 -119 0 -185 4
-185 10 0 6 38 115 85 243 47 127 88 239 91 247 8 22 14 10 109 -245z"/>
<path d="M6530 4650 l0 -140 205 0 205 0 0 -570 0 -570 155 0 155 0 0 570 0
570 205 0 205 0 0 140 0 140 -565 0 -565 0 0 -140z"/>
<path d="M1216 2247 c-22 -5 -55 -26 -77 -48 -34 -34 -39 -45 -39 -85 0 -92
29 -121 175 -176 47 -18 62 -29 70 -52 8 -24 6 -31 -14 -47 -30 -25 -62 -24
-138 3 -61 21 -63 21 -83 3 -59 -53 24 -115 154 -115 97 0 151 27 178 88 15
33 18 55 13 88 -9 62 -47 96 -145 129 -57 19 -86 34 -97 52 -16 25 -16 26 12
50 24 21 35 24 68 19 21 -4 56 -15 78 -26 l38 -20 16 29 c8 17 15 38 15 49 0
21 -49 48 -106 57 -22 3 -48 8 -59 9 -11 2 -37 -1 -59 -7z"/>
<path d="M2000 2250 c-106 -20 -164 -100 -140 -190 13 -49 51 -78 148 -115 99
-37 119 -59 89 -99 -20 -28 -84 -31 -145 -7 -70 28 -77 27 -100 -14 l-21 -34
32 -19 c48 -30 100 -43 164 -44 106 -1 177 46 190 126 13 83 -25 131 -139 176
-96 38 -123 59 -114 87 7 21 45 43 76 43 11 0 42 -9 70 -20 28 -11 55 -18 59
-15 14 8 34 64 28 79 -11 27 -138 57 -197 46z"/>
<path d="M7301 2249 c-124 -37 -190 -147 -178 -295 6 -86 44 -148 115 -190 66
-40 122 -49 184 -30 63 18 105 50 139 104 27 43 29 53 29 144 0 107 -10 143
-54 195 -50 59 -162 94 -235 72z m128 -115 c32 -23 61 -90 61 -144 0 -54 -30
-123 -62 -143 -64 -42 -148 -22 -180 43 -38 76 -12 204 49 242 36 22 102 23
132 2z"/>
<path d="M1600 1990 l0 -260 55 0 55 0 0 260 0 260 -55 0 -55 0 0 -260z"/>
<path d="M2307 2243 c-4 -3 -7 -26 -7 -50 l0 -43 75 0 75 0 0 -210 0 -210 55
0 55 0 0 210 0 210 70 0 70 0 0 50 0 50 -193 0 c-107 0 -197 -3 -200 -7z"/>
<path d="M2810 1990 l0 -260 175 0 175 0 0 49 0 49 -120 -5 -120 -6 0 56 c0
31 4 58 9 61 7 5 90 12 179 15 7 1 12 16 12 41 l0 39 -97 3 -98 3 -3 58 -3 57
121 0 120 0 0 50 0 50 -175 0 -175 0 0 -260z"/>
<path d="M3290 1990 l0 -260 55 0 55 0 1 158 0 157 55 -110 c63 -125 80 -147
108 -143 22 3 37 29 106 178 l35 75 3 -157 3 -158 49 0 50 0 0 260 0 260 -56
0 -55 0 -72 -150 c-39 -82 -73 -150 -76 -149 -3 0 -39 67 -78 150 l-73 149
-55 0 -55 0 0 -260z"/>
<path d="M4114 2242 c-10 -7 -52 -108 -157 -385 -50 -130 -50 -131 23 -125 42
3 43 5 63 56 l20 52 102 0 101 0 18 -55 17 -55 49 0 c27 0 51 4 54 8 8 14
-178 492 -197 504 -15 10 -79 10 -93 0z m83 -222 c17 -43 28 -82 25 -85 -8 -8
-122 -6 -122 2 0 19 53 163 59 163 5 0 22 -36 38 -80z"/>
<path d="M4780 1990 l0 -260 175 0 175 0 0 51 0 51 -120 -7 -120 -7 0 67 0 67
100 -7 100 -7 0 46 0 46 -100 0 -100 0 0 60 0 59 118 3 117 3 3 48 3 47 -175
0 -176 0 0 -260z"/>
<path d="M5260 1990 l0 -260 160 0 160 0 0 48 0 47 -105 -3 -105 -3 0 215 0
216 -55 0 -55 0 0 -260z"/>
<path d="M5700 1990 l0 -260 175 0 175 0 0 45 0 45 -120 0 -120 0 0 60 0 60
105 0 105 0 0 45 0 44 -102 3 -103 3 -3 58 -3 57 121 0 120 0 0 50 0 50 -175
0 -175 0 0 -260z"/>
<path d="M6289 2230 c-51 -27 -105 -93 -118 -145 -14 -57 -14 -153 1 -196 17
-50 57 -99 107 -131 75 -47 203 -36 273 23 l33 28 -31 31 c-30 31 -32 32 -57
16 -70 -47 -149 -39 -193 20 -36 46 -45 151 -17 203 41 78 129 100 196 48 l34
-26 28 29 c37 39 30 60 -34 93 -68 34 -165 37 -222 7z"/>
<path d="M6660 2200 l0 -50 70 0 70 0 0 -210 0 -210 55 0 55 0 0 210 0 210 70
0 70 0 0 50 0 50 -195 0 -195 0 0 -50z"/>
<path d="M7740 1990 l0 -260 55 0 55 0 0 81 0 80 38 -3 c33 -3 41 -9 77 -64
22 -34 45 -69 50 -78 8 -14 22 -17 68 -14 l57 3 -55 90 -55 90 40 38 c83 81
78 193 -11 259 -31 23 -120 38 -231 38 l-88 0 0 -260z m234 150 c37 -14 50
-44 36 -86 -13 -40 -48 -61 -115 -71 l-45 -6 0 87 0 86 49 0 c27 0 61 -4 75
-10z"/>
<path d="M8391 2228 c-4 -13 -47 -127 -95 -254 -47 -126 -86 -233 -86 -237 0
-4 24 -7 53 -7 l53 0 19 55 18 55 103 0 102 0 17 -55 18 -55 53 0 c41 0 54 4
54 15 0 8 -43 125 -97 260 l-96 245 -54 0 c-46 0 -55 -3 -62 -22z m103 -206
c14 -41 24 -78 20 -83 -6 -10 -107 -13 -116 -3 -5 4 18 85 47 163 9 22 20 3
49 -77z"/>
<path d="M8820 1996 l0 -253 53 -7 c28 -3 100 -6 160 -6 l107 0 0 49 0 50
-110 -6 -110 -6 0 217 0 216 -50 0 -50 0 0 -254z"/>
</g>
</svg>
