<?xml version="1.0" standalone="no"?>
<!DOCTYPE svg PUBLIC "-//W3C//DTD SVG 20010904//EN"
 "http://www.w3.org/TR/2001/REC-SVG-20010904/DTD/svg10.dtd">
<svg version="1.0" xmlns="http://www.w3.org/2000/svg"
 width="1024.000000pt" height="1024.000000pt" viewBox="0 0 1024.000000 1024.000000"
 preserveAspectRatio="xMidYMid meet">

<g transform="translate(0.000000,1024.000000) scale(0.100000,-0.100000)"
fill="#000000" stroke="none">
<path d="M5056 9499 c-32 -5 -81 -19 -110 -32 -28 -13 -312 -181 -631 -374
-319 -192 -624 -376 -678 -409 -54 -32 -121 -81 -148 -108 -57 -56 -104 -147
-119 -225 -6 -33 -10 -366 -10 -875 0 -904 0 -902 62 -1017 18 -36 53 -79 82
-105 40 -34 695 -434 1354 -826 99 -59 144 -76 225 -84 81 -8 166 9 242 50 33
18 357 211 720 430 684 412 727 441 779 535 57 105 56 92 56 1002 0 518 -4
857 -10 890 -14 77 -64 171 -118 227 -35 35 -217 150 -695 437 -357 215 -674
405 -705 423 -96 55 -195 75 -296 61z m194 -548 c96 -25 236 -76 278 -101 24
-15 32 -27 32 -49 0 -63 -57 -78 -138 -37 -203 103 -473 113 -697 27 -255 -99
-476 -305 -610 -571 -46 -90 -90 -225 -101 -310 -7 -52 -35 -100 -59 -100 -8
0 -26 11 -41 24 l-28 23 13 84 c24 161 95 331 208 502 58 87 222 254 318 325
131 97 333 181 485 202 92 13 252 4 340 -19z m-98 -241 c339 -49 631 -343 735
-740 34 -131 45 -370 18 -400 -23 -25 -50 -25 -75 0 -16 16 -20 33 -20 94 0
313 -137 615 -352 779 -91 68 -155 101 -254 128 -109 30 -266 24 -374 -15
-301 -107 -533 -395 -571 -709 -6 -50 -20 -113 -31 -139 -23 -53 -124 -156
-208 -210 -75 -49 -94 -54 -120 -28 -34 34 -23 69 34 110 69 49 153 127 176
164 11 18 25 74 34 131 39 259 181 500 387 655 196 147 413 210 621 180z m682
-146 c91 -69 127 -144 89 -186 -28 -31 -53 -21 -134 59 -82 80 -92 100 -63
141 22 31 54 27 108 -14z m-690 -119 c206 -44 389 -210 479 -437 92 -228 88
-512 -10 -812 -14 -43 -33 -86 -43 -96 -20 -20 -62 -16 -82 7 -13 16 -10 34
42 228 27 100 33 144 37 266 7 185 -9 276 -73 406 -126 256 -356 375 -585 303
-236 -74 -384 -274 -419 -565 -16 -135 -58 -215 -174 -330 -69 -68 -116 -104
-194 -149 -125 -71 -181 -83 -207 -43 -27 41 -12 62 83 113 121 65 199 122
264 193 77 83 105 144 118 261 17 150 52 244 133 364 105 156 272 267 445 296
72 12 111 11 186 -5z m1240 -227 c9 -12 16 -34 16 -49 0 -50 -21 -56 -202 -64
-144 -6 -171 -5 -192 8 -41 27 -40 109 1 120 10 3 95 5 190 6 167 1 172 0 187
-21z m-1188 -58 c115 -56 207 -187 239 -338 19 -87 19 -268 0 -357 -57 -270
-197 -518 -414 -736 -179 -179 -311 -275 -564 -409 -124 -65 -142 -67 -168
-19 -24 45 -5 65 121 129 233 119 455 286 591 443 143 165 259 375 305 554 35
132 37 305 6 403 -39 120 -109 201 -199 231 -55 18 -154 6 -207 -25 -60 -35
-121 -107 -144 -170 -11 -28 -23 -89 -26 -136 -13 -147 -46 -244 -125 -356
-106 -153 -238 -257 -478 -378 -171 -85 -223 -88 -223 -10 0 38 -2 36 115 89
350 158 556 374 586 615 26 204 60 292 151 383 55 55 144 107 208 120 61 13
163 -2 226 -33z m1084 -212 c13 -25 13 -31 0 -55 -15 -27 -18 -28 -120 -31
-90 -2 -107 0 -117 15 -16 21 -17 57 -2 84 9 18 19 19 117 17 104 -3 107 -4
122 -30z m-1161 -39 c138 -99 131 -367 -16 -667 -61 -125 -144 -236 -267 -357
-153 -151 -311 -257 -540 -363 -112 -52 -121 -54 -145 -41 -19 11 -27 24 -29
51 l-3 36 148 72 c210 102 354 200 489 334 165 165 275 345 323 530 36 138 24
286 -24 308 -55 25 -70 -5 -84 -164 -15 -168 -66 -291 -192 -458 -121 -160
-286 -291 -516 -407 -203 -102 -263 -113 -279 -48 -10 38 1 54 53 77 225 97
310 142 427 230 77 58 183 162 236 233 98 131 146 257 160 417 12 125 20 151
63 197 39 40 60 50 113 50 31 1 52 -7 83 -30z m1358 -211 c19 -20 22 -70 4
-91 -9 -12 -56 -16 -207 -22 -179 -7 -196 -6 -214 10 -21 19 -26 69 -10 95 11
17 141 28 307 26 81 -1 106 -5 120 -18z m-93 -280 c20 -28 20 -58 2 -84 -13
-17 -30 -19 -174 -22 l-160 -4 -17 26 c-23 35 -12 82 23 95 15 5 91 10 169 10
136 1 143 0 157 -21z m-496 -26 c16 -21 15 -41 -5 -118 -27 -99 -29 -98 178
-104 l173 -5 15 -26 c18 -32 8 -74 -20 -89 -32 -18 -418 -19 -447 -2 -39 22
-55 74 -43 138 18 94 51 194 72 215 22 22 55 18 77 -9z m-420 -425 c12 -26 11
-33 -23 -95 -105 -192 -330 -426 -562 -585 -112 -77 -287 -177 -310 -177 -36
0 -64 29 -61 63 3 28 13 37 93 82 314 177 561 396 718 635 26 41 56 83 65 93
23 26 64 18 80 -16z m258 -44 c33 -15 84 -18 339 -21 262 -3 302 -5 313 -20
18 -24 15 -59 -9 -83 -20 -20 -27 -21 -352 -17 -340 4 -385 9 -414 46 -18 22
-16 42 7 80 23 38 55 42 116 15z m-153 -253 c6 -16 20 -31 31 -34 12 -3 134
-6 273 -6 215 0 254 -2 267 -16 21 -21 20 -57 -3 -85 -19 -23 -22 -24 -255
-27 -231 -4 -368 6 -421 30 -53 24 -56 81 -8 138 48 57 95 57 116 0z m-219
-239 c10 -10 16 -27 14 -38 -4 -24 53 -31 289 -32 l183 -1 16 -25 c26 -40 12
-72 -39 -87 -64 -18 -359 -15 -481 6 -132 22 -150 31 -154 78 -3 34 1 40 48
77 57 45 97 52 124 22z m59 -293 c24 -12 23 -70 -2 -93 -18 -16 -41 -17 -243
-13 -153 2 -230 8 -245 16 -28 15 -31 66 -7 94 16 16 33 17 248 11 127 -3 239
-10 249 -15z"/>
<path d="M5739 4796 c-333 -70 -548 -347 -550 -709 -2 -202 49 -356 164 -495
140 -169 394 -264 621 -233 164 23 288 84 400 196 l69 69 -102 98 -103 97 -67
-58 c-81 -69 -139 -98 -221 -112 -119 -19 -242 23 -324 111 -220 236 -129 662
159 745 135 40 290 0 398 -100 26 -25 51 -45 55 -45 4 0 50 43 102 95 l94 95
-49 51 c-72 74 -187 145 -280 175 -99 32 -264 41 -366 20z"/>
<path d="M8294 4795 c-206 -46 -374 -178 -469 -369 -57 -114 -79 -210 -79
-346 -1 -136 23 -237 82 -353 81 -157 217 -275 384 -331 199 -67 380 -55 568
37 116 57 229 167 288 284 184 358 71 800 -255 996 -143 86 -350 119 -519 82z
m308 -307 c229 -107 307 -453 153 -685 -40 -60 -80 -93 -155 -127 -239 -107
-491 54 -530 338 -26 184 42 353 179 448 64 45 114 58 211 55 68 -2 97 -8 142
-29z"/>
<path d="M1090 4650 l0 -140 200 0 200 0 0 -570 0 -570 160 0 160 0 0 570 0
570 208 0 207 0 -3 140 -3 140 -565 0 -564 0 0 -140z"/>
<path d="M2420 4081 l0 -711 155 0 155 0 0 205 0 205 138 0 137 0 74 -123 c41
-67 98 -159 127 -204 l54 -83 170 0 c93 0 170 2 170 5 0 2 -67 106 -150 230
-82 124 -150 229 -150 234 0 5 20 21 44 35 51 30 139 123 165 175 146 291 1
625 -313 719 -40 12 -127 16 -413 19 l-363 5 0 -711z m654 419 c91 -21 156
-97 164 -194 8 -101 -35 -183 -122 -229 -37 -20 -59 -22 -213 -25 l-173 -4 0
231 0 231 153 0 c83 0 170 -5 191 -10z"/>
<path d="M4172 4613 c-39 -98 -168 -418 -286 -711 l-215 -532 167 2 166 3 57
150 57 150 290 3 289 2 38 -102 c21 -57 48 -127 61 -155 l23 -53 165 0 c92 0
166 1 166 3 0 5 -36 94 -232 567 -99 239 -205 496 -235 570 -30 74 -68 168
-85 208 l-30 72 -162 0 -162 0 -72 -177z m268 -253 c12 -36 53 -146 91 -244
38 -99 67 -181 65 -183 -2 -2 -88 -2 -192 -1 l-190 3 87 235 c48 129 90 244
93 255 8 28 19 12 46 -65z"/>
<path d="M6530 4650 l0 -140 205 0 205 0 0 -570 0 -570 155 0 155 0 0 570 0
570 205 0 205 0 0 140 0 140 -565 0 -565 0 0 -140z"/>
<path d="M1225 2251 c-105 -27 -156 -116 -116 -205 21 -49 52 -69 151 -101 67
-21 90 -40 90 -73 0 -56 -80 -68 -169 -27 -51 24 -54 24 -67 8 -45 -57 -41
-68 34 -103 97 -46 236 -25 285 42 31 42 34 119 7 163 -25 40 -54 58 -144 85
-78 24 -104 50 -88 85 20 43 89 45 164 5 l36 -19 21 40 c12 22 19 44 17 48 -3
3 -24 16 -48 28 -49 25 -128 36 -173 24z"/>
<path d="M1985 2251 c-98 -25 -153 -111 -125 -195 16 -49 59 -82 138 -105 83
-25 112 -45 112 -76 0 -57 -94 -73 -174 -30 -26 14 -51 23 -56 20 -4 -3 -17
-21 -29 -40 l-20 -35 43 -25 c122 -72 292 -46 332 51 43 104 -5 181 -138 220
-82 25 -108 41 -108 68 0 52 81 72 152 37 25 -11 47 -21 50 -21 11 0 48 71 42
81 -22 36 -155 67 -219 50z"/>
<path d="M6337 2250 c-76 -19 -147 -87 -167 -160 -15 -54 -12 -176 6 -218 19
-47 68 -98 119 -125 81 -42 212 -21 269 42 20 22 20 22 -11 53 l-31 31 -32
-23 c-69 -49 -158 -32 -198 39 -29 51 -30 146 -3 200 38 73 135 90 199 36 l29
-24 33 34 c28 29 31 36 20 50 -44 53 -156 84 -233 65z"/>
<path d="M7305 2251 c-116 -30 -184 -125 -185 -257 0 -97 21 -153 79 -207 118
-110 299 -75 377 73 15 27 19 56 19 130 0 102 -11 137 -64 193 -52 57 -153 87
-226 68z m122 -117 c65 -42 86 -166 41 -245 -51 -92 -184 -89 -224 6 -23 55
-18 155 9 196 43 65 115 83 174 43z"/>
<path d="M1600 1990 l0 -260 55 0 55 0 0 260 0 260 -55 0 -55 0 0 -260z"/>
<path d="M2307 2243 c-4 -3 -7 -26 -7 -50 l0 -43 75 0 75 0 0 -210 0 -210 55
0 55 0 0 210 0 210 70 0 70 0 0 50 0 50 -193 0 c-107 0 -197 -3 -200 -7z"/>
<path d="M2810 1990 l0 -260 174 0 c96 0 177 3 179 8 2 4 2 25 0 48 l-5 41
-119 -5 -119 -5 0 62 c0 51 3 61 18 62 9 1 53 2 97 3 l80 1 3 43 3 42 -83 1
c-46 1 -91 1 -100 0 -15 -2 -18 7 -18 58 l0 61 120 0 120 0 0 50 0 50 -175 0
-175 0 0 -260z"/>
<path d="M3290 1990 l0 -260 55 0 55 0 1 158 0 157 62 -125 c58 -117 64 -125
93 -128 31 -3 31 -2 90 128 l59 132 3 -161 2 -161 50 0 50 0 0 260 0 261 -57
-3 -57 -3 -72 -153 -72 -153 -75 156 -76 155 -55 0 -56 0 0 -260z"/>
<path d="M4106 2241 c-3 -5 -46 -114 -95 -242 -49 -129 -92 -242 -96 -252 -7
-16 -2 -18 50 -15 l58 3 20 53 20 52 102 0 101 0 18 -55 17 -55 55 0 c30 0 54
5 54 10 0 12 -167 444 -187 483 -12 24 -19 27 -63 27 -27 0 -51 -4 -54 -9z
m88 -208 c16 -43 31 -84 33 -90 4 -10 -12 -13 -61 -13 -36 0 -66 3 -66 7 0 15
55 173 60 173 3 0 18 -35 34 -77z"/>
<path d="M4780 1990 l0 -260 175 0 175 0 0 50 0 49 -120 -5 -120 -6 0 66 0 66
101 -5 100 -5 -3 47 -3 47 -97 -3 -98 -3 0 61 0 60 118 3 117 3 3 48 3 47
-175 0 -176 0 0 -260z"/>
<path d="M5260 1990 l0 -260 160 0 160 0 0 48 0 47 -105 -3 -105 -3 0 215 0
216 -55 0 -55 0 0 -260z"/>
<path d="M5700 1990 l0 -260 173 0 c96 0 176 2 178 4 2 3 3 24 1 48 l-4 43
-119 -3 -120 -3 3 63 3 63 103 -3 102 -3 0 45 0 45 -102 3 -103 3 -3 58 -3 57
121 0 120 0 0 50 0 50 -175 0 -175 0 0 -260z"/>
<path d="M6660 2200 l0 -50 70 0 70 0 0 -210 0 -210 55 0 55 0 0 210 0 210 70
0 70 0 0 50 0 50 -195 0 -195 0 0 -50z"/>
<path d="M7740 1991 l0 -261 55 0 55 0 0 80 0 80 40 0 c39 0 40 -1 86 -80 l46
-80 59 0 c32 0 59 3 59 6 0 3 -25 44 -55 90 -30 47 -55 88 -55 92 1 4 15 16
32 27 64 41 88 143 50 215 -11 20 -38 46 -63 60 -40 23 -57 25 -176 28 l-133
4 0 -261z m257 133 c20 -20 24 -31 19 -57 -10 -50 -43 -75 -108 -83 l-58 -7 0
87 0 86 60 0 c52 0 65 -4 87 -26z"/>
<path d="M8400 2247 c0 -2 -43 -116 -95 -253 -52 -137 -95 -252 -95 -256 0 -5
24 -8 53 -8 l54 0 18 55 19 55 101 0 102 0 18 -55 19 -55 59 0 c32 0 57 4 55
9 -1 4 -48 121 -102 260 l-99 251 -54 0 c-29 0 -53 -2 -53 -3z m89 -213 c17
-47 31 -89 31 -95 0 -5 -30 -9 -66 -9 -49 0 -65 3 -62 13 3 6 17 49 32 95 15
45 29 82 31 82 2 0 17 -38 34 -86z"/>
<path d="M8820 2000 c0 -137 -1 -253 -2 -257 -2 -5 70 -9 160 -11 l162 -2 0
49 0 49 -110 -5 -110 -5 0 216 0 216 -50 0 -50 0 0 -250z"/>
</g>
</svg>
